<svg width="223" height="39" viewBox="0 0 223 39" fill="none" xmlns="http://www.w3.org/2000/svg">
<path d="M16.1591 21H14.0455C13.9205 20.392 13.7017 19.858 13.3892 19.3977C13.0824 18.9375 12.7074 18.5511 12.2642 18.2386C11.8267 17.9205 11.3409 17.6818 10.8068 17.5227C10.2727 17.3636 9.71591 17.2841 9.13636 17.2841C8.07955 17.2841 7.12216 17.5511 6.2642 18.0852C5.41193 18.6193 4.73295 19.4062 4.22727 20.446C3.72727 21.4858 3.47727 22.7614 3.47727 24.2727C3.47727 25.7841 3.72727 27.0597 4.22727 28.0994C4.73295 29.1392 5.41193 29.9261 6.2642 30.4602C7.12216 30.9943 8.07955 31.2614 9.13636 31.2614C9.71591 31.2614 10.2727 31.1818 10.8068 31.0227C11.3409 30.8636 11.8267 30.6278 12.2642 30.3153C12.7074 29.9972 13.0824 29.608 13.3892 29.1477C13.7017 28.6818 13.9205 28.1477 14.0455 27.5455H16.1591C16 28.4375 15.7102 29.2358 15.2898 29.9403C14.8693 30.6449 14.3466 31.2443 13.7216 31.7386C13.0966 32.2273 12.3949 32.5994 11.6165 32.8551C10.8438 33.1108 10.017 33.2386 9.13636 33.2386C7.64773 33.2386 6.32386 32.875 5.16477 32.1477C4.00568 31.4205 3.09375 30.3864 2.42898 29.0455C1.7642 27.7045 1.43182 26.1136 1.43182 24.2727C1.43182 22.4318 1.7642 20.8409 2.42898 19.5C3.09375 18.1591 4.00568 17.125 5.16477 16.3977C6.32386 15.6705 7.64773 15.3068 9.13636 15.3068C10.017 15.3068 10.8438 15.4347 11.6165 15.6903C12.3949 15.946 13.0966 16.321 13.7216 16.8153C14.3466 17.304 14.8693 17.9006 15.2898 18.6051C15.7102 19.304 16 20.1023 16.1591 21ZM37.1818 24.2727C37.1818 26.1136 36.8495 27.7045 36.1847 29.0455C35.5199 30.3864 34.608 31.4205 33.4489 32.1477C32.2898 32.875 30.9659 33.2386 29.4773 33.2386C27.9887 33.2386 26.6648 32.875 25.5057 32.1477C24.3466 31.4205 23.4347 30.3864 22.7699 29.0455C22.1051 27.7045 21.7728 26.1136 21.7728 24.2727C21.7728 22.4318 22.1051 20.8409 22.7699 19.5C23.4347 18.1591 24.3466 17.125 25.5057 16.3977C26.6648 15.6705 27.9887 15.3068 29.4773 15.3068C30.9659 15.3068 32.2898 15.6705 33.4489 16.3977C34.608 17.125 35.5199 18.1591 36.1847 19.5C36.8495 20.8409 37.1818 22.4318 37.1818 24.2727ZM35.1364 24.2727C35.1364 22.7614 34.8836 21.4858 34.3779 20.446C33.8779 19.4062 33.1989 18.6193 32.3409 18.0852C31.4887 17.5511 30.5341 17.2841 29.4773 17.2841C28.4205 17.2841 27.4631 17.5511 26.6051 18.0852C25.7529 18.6193 25.0739 19.4062 24.5682 20.446C24.0682 21.4858 23.8182 22.7614 23.8182 24.2727C23.8182 25.7841 24.0682 27.0597 24.5682 28.0994C25.0739 29.1392 25.7529 29.9261 26.6051 30.4602C27.4631 30.9943 28.4205 31.2614 29.4773 31.2614C30.5341 31.2614 31.4887 30.9943 32.3409 30.4602C33.1989 29.9261 33.8779 29.1392 34.3779 28.0994C34.8836 27.0597 35.1364 25.7841 35.1364 24.2727ZM55.0704 15.5455H57.184V27.1023C57.184 28.2955 56.9028 29.3608 56.3403 30.2983C55.7834 31.2301 54.9965 31.9659 53.9795 32.5057C52.9624 33.0398 51.7692 33.3068 50.3999 33.3068C49.0306 33.3068 47.8374 33.0398 46.8204 32.5057C45.8033 31.9659 45.0136 31.2301 44.4511 30.2983C43.8942 29.3608 43.6158 28.2955 43.6158 27.1023V15.5455H45.7295V26.9318C45.7295 27.7841 45.917 28.5426 46.292 29.2074C46.667 29.8665 47.2011 30.3864 47.8942 30.767C48.5931 31.142 49.4283 31.3295 50.3999 31.3295C51.3715 31.3295 52.2067 31.142 52.9056 30.767C53.6045 30.3864 54.1386 29.8665 54.5079 29.2074C54.8829 28.5426 55.0704 27.7841 55.0704 26.9318V15.5455ZM63.3303 17.4205V15.5455H76.4212V17.4205H70.9326V33H68.819V17.4205H63.3303ZM96.564 24.2727C96.564 26.1136 96.2317 27.7045 95.5669 29.0455C94.9021 30.3864 93.9902 31.4205 92.8311 32.1477C91.672 32.875 90.3481 33.2386 88.8595 33.2386C87.3709 33.2386 86.047 32.875 84.8879 32.1477C83.7288 31.4205 82.8169 30.3864 82.1521 29.0455C81.4873 27.7045 81.1549 26.1136 81.1549 24.2727C81.1549 22.4318 81.4873 20.8409 82.1521 19.5C82.8169 18.1591 83.7288 17.125 84.8879 16.3977C86.047 15.6705 87.3709 15.3068 88.8595 15.3068C90.3481 15.3068 91.672 15.6705 92.8311 16.3977C93.9902 17.125 94.9021 18.1591 95.5669 19.5C96.2317 20.8409 96.564 22.4318 96.564 24.2727ZM94.5186 24.2727C94.5186 22.7614 94.2657 21.4858 93.7601 20.446C93.2601 19.4062 92.5811 18.6193 91.7231 18.0852C90.8709 17.5511 89.9163 17.2841 88.8595 17.2841C87.8027 17.2841 86.8453 17.5511 85.9873 18.0852C85.1351 18.6193 84.4561 19.4062 83.9504 20.446C83.4504 21.4858 83.2004 22.7614 83.2004 24.2727C83.2004 25.7841 83.4504 27.0597 83.9504 28.0994C84.4561 29.1392 85.1351 29.9261 85.9873 30.4602C86.8453 30.9943 87.8027 31.2614 88.8595 31.2614C89.9163 31.2614 90.8709 30.9943 91.7231 30.4602C92.5811 29.9261 93.2601 29.1392 93.7601 28.0994C94.2657 27.0597 94.5186 25.7841 94.5186 24.2727ZM122.173 19.9091C122.071 19.0455 121.656 18.375 120.929 17.8977C120.202 17.4205 119.31 17.1818 118.253 17.1818C117.48 17.1818 116.804 17.3068 116.225 17.5568C115.651 17.8068 115.202 18.1506 114.878 18.5881C114.56 19.0256 114.401 19.5227 114.401 20.0795C114.401 20.5455 114.512 20.946 114.733 21.2812C114.96 21.6108 115.25 21.8864 115.602 22.108C115.955 22.3239 116.324 22.5028 116.71 22.6449C117.097 22.7812 117.452 22.892 117.776 22.9773L119.548 23.4545C120.003 23.5739 120.509 23.7386 121.066 23.9489C121.628 24.1591 122.165 24.446 122.676 24.8097C123.193 25.1676 123.619 25.6278 123.955 26.1903C124.29 26.7528 124.458 27.4432 124.458 28.2614C124.458 29.2045 124.21 30.0568 123.716 30.8182C123.227 31.5795 122.512 32.1847 121.568 32.6335C120.631 33.0824 119.492 33.3068 118.151 33.3068C116.901 33.3068 115.818 33.1051 114.904 32.7017C113.994 32.2983 113.279 31.7358 112.756 31.0142C112.239 30.2926 111.946 29.4545 111.878 28.5H114.06C114.117 29.1591 114.338 29.7045 114.725 30.1364C115.117 30.5625 115.611 30.8807 116.208 31.0909C116.81 31.2955 117.458 31.3977 118.151 31.3977C118.958 31.3977 119.682 31.267 120.324 31.0057C120.966 30.7386 121.475 30.3693 121.85 29.8977C122.225 29.4205 122.412 28.8636 122.412 28.2273C122.412 27.6477 122.25 27.1761 121.926 26.8125C121.602 26.4489 121.176 26.1534 120.648 25.9261C120.119 25.6989 119.548 25.5 118.935 25.3295L116.787 24.7159C115.423 24.3239 114.344 23.7642 113.548 23.0369C112.753 22.3097 112.355 21.358 112.355 20.1818C112.355 19.2045 112.619 18.3523 113.148 17.625C113.682 16.892 114.398 16.3239 115.296 15.9205C116.199 15.5114 117.208 15.3068 118.321 15.3068C119.446 15.3068 120.446 15.5085 121.321 15.9119C122.196 16.3097 122.889 16.8551 123.401 17.5483C123.918 18.2415 124.191 19.0284 124.219 19.9091H122.173ZM145.54 24.2727C145.54 26.1136 145.208 27.7045 144.543 29.0455C143.878 30.3864 142.966 31.4205 141.807 32.1477C140.648 32.875 139.324 33.2386 137.835 33.2386C136.347 33.2386 135.023 32.875 133.864 32.1477C132.705 31.4205 131.793 30.3864 131.128 29.0455C130.463 27.7045 130.131 26.1136 130.131 24.2727C130.131 22.4318 130.463 20.8409 131.128 19.5C131.793 18.1591 132.705 17.125 133.864 16.3977C135.023 15.6705 136.347 15.3068 137.835 15.3068C139.324 15.3068 140.648 15.6705 141.807 16.3977C142.966 17.125 143.878 18.1591 144.543 19.5C145.208 20.8409 145.54 22.4318 145.54 24.2727ZM143.495 24.2727C143.495 22.7614 143.242 21.4858 142.736 20.446C142.236 19.4062 141.557 18.6193 140.699 18.0852C139.847 17.5511 138.892 17.2841 137.835 17.2841C136.779 17.2841 135.821 17.5511 134.963 18.0852C134.111 18.6193 133.432 19.4062 132.926 20.446C132.426 21.4858 132.176 22.7614 132.176 24.2727C132.176 25.7841 132.426 27.0597 132.926 28.0994C133.432 29.1392 134.111 29.9261 134.963 30.4602C135.821 30.9943 136.779 31.2614 137.835 31.2614C138.892 31.2614 139.847 30.9943 140.699 30.4602C141.557 29.9261 142.236 29.1392 142.736 28.0994C143.242 27.0597 143.495 25.7841 143.495 24.2727ZM151.974 33V15.5455H154.088V31.125H162.201V33H151.974ZM170.171 33H167.956L174.365 15.5455H176.546L182.956 33H180.74L175.524 18.3068H175.387L170.171 33ZM170.99 26.1818H179.921V28.0568H170.99V26.1818ZM188.554 33V15.5455H194.452C195.816 15.5455 196.935 15.7784 197.81 16.2443C198.685 16.7045 199.333 17.3381 199.753 18.1449C200.174 18.9517 200.384 19.8693 200.384 20.8977C200.384 21.9261 200.174 22.8381 199.753 23.6335C199.333 24.429 198.688 25.054 197.818 25.5085C196.949 25.9574 195.838 26.1818 194.486 26.1818H189.713V24.2727H194.418C195.35 24.2727 196.1 24.1364 196.668 23.8636C197.242 23.5909 197.657 23.2045 197.912 22.7045C198.174 22.1989 198.304 21.5966 198.304 20.8977C198.304 20.1989 198.174 19.5881 197.912 19.0653C197.651 18.5426 197.233 18.1392 196.659 17.8551C196.086 17.5653 195.327 17.4205 194.384 17.4205H190.668V33H188.554ZM196.77 25.1591L201.066 33H198.611L194.384 25.1591H196.77Z" fill="black"/>
<path d="M211.163 9.94485C211.163 9.29833 211.321 8.70898 211.636 8.17679C211.951 7.6446 212.375 7.22082 212.907 6.90544C213.44 6.59007 214.029 6.43239 214.675 6.43239C215.235 6.43239 215.752 6.55262 216.225 6.79309C216.702 7.03356 217.096 7.36273 217.407 7.7806C217.719 8.19453 217.912 8.66365 217.987 9.18795H216.556C216.477 8.78191 216.258 8.45077 215.899 8.19453C215.541 7.93435 215.133 7.80426 214.675 7.80426C214.281 7.80426 213.922 7.90084 213.599 8.094C213.276 8.28717 213.018 8.54538 212.825 8.86864C212.631 9.19189 212.535 9.55063 212.535 9.94485C212.535 10.3391 212.631 10.6978 212.825 11.0211C213.018 11.3443 213.276 11.6025 213.599 11.7957C213.922 11.9889 214.281 12.0854 214.675 12.0854C215.133 12.0854 215.519 11.9573 215.834 11.7011C216.154 11.4409 216.355 11.1078 216.438 10.7017H217.869C217.794 11.226 217.61 11.6971 217.319 12.115C217.027 12.5289 216.652 12.8561 216.195 13.0966C215.742 13.3371 215.235 13.4573 214.675 13.4573C214.029 13.4573 213.44 13.2996 212.907 12.9843C212.375 12.6689 211.951 12.2451 211.636 11.7129C211.321 11.1807 211.163 10.5914 211.163 9.94485ZM214.616 16.1892C213.757 16.1892 212.949 16.0276 212.192 15.7043C211.439 15.3811 210.775 14.9336 210.199 14.362C209.627 13.7865 209.178 13.1222 208.851 12.3693C208.528 11.6163 208.368 10.8082 208.372 9.94485C208.376 9.08151 208.539 8.27337 208.863 7.52042C209.19 6.76747 209.639 6.10519 210.211 5.53357C210.782 4.95802 211.445 4.50861 212.198 4.18536C212.951 3.8621 213.757 3.70047 214.616 3.70047C215.48 3.70047 216.288 3.8621 217.041 4.18536C217.798 4.50861 218.46 4.95802 219.028 5.53357C219.599 6.10519 220.047 6.76747 220.37 7.52042C220.693 8.27337 220.857 9.08151 220.861 9.94485C220.865 10.8082 220.705 11.6163 220.382 12.3693C220.058 13.1222 219.611 13.7865 219.039 14.362C218.468 14.9336 217.803 15.3811 217.047 15.7043C216.29 16.0276 215.48 16.1892 214.616 16.1892ZM214.616 14.8174C215.29 14.8174 215.923 14.6912 216.514 14.4389C217.106 14.1866 217.624 13.8377 218.07 13.3923C218.515 12.9468 218.864 12.4304 219.116 11.843C219.369 11.2517 219.493 10.6209 219.489 9.95076C219.485 9.27665 219.357 8.64394 219.104 8.05261C218.852 7.46129 218.503 6.94289 218.058 6.49743C217.612 6.05197 217.096 5.70309 216.508 5.45079C215.921 5.19849 215.29 5.07234 214.616 5.07234C213.946 5.07234 213.317 5.19849 212.73 5.45079C212.143 5.70309 211.626 6.05394 211.181 6.50334C210.735 6.94881 210.384 7.4672 210.128 8.05852C209.876 8.64591 209.748 9.27665 209.744 9.95076C209.74 10.617 209.864 11.2458 210.116 11.8371C210.369 12.4245 210.717 12.9409 211.163 13.3863C211.612 13.8318 212.131 14.1827 212.718 14.4389C213.309 14.6912 213.942 14.8174 214.616 14.8174Z" fill="black"/>
</svg>
