<svg width="42" height="42" viewBox="0 0 42 42" fill="none" xmlns="http://www.w3.org/2000/svg">
<path d="M5.25 2.625C5.25 1.92881 5.52656 1.26113 6.01884 0.768845C6.51113 0.276562 7.17881 0 7.875 0L34.125 0C34.8212 0 35.4889 0.276562 35.9812 0.768845C36.4734 1.26113 36.75 1.92881 36.75 2.625V21.672C35.4852 21.2261 34.1536 20.9989 32.8125 21C30.986 21.0001 29.1844 21.4237 27.5492 22.2377C25.9141 23.0516 24.4899 24.2336 23.3888 25.6909C23.543 25.4699 23.6254 25.2069 23.625 24.9375V22.3125C23.625 21.9644 23.4867 21.6306 23.2406 21.3844C22.9944 21.1383 22.6606 21 22.3125 21H19.6875C19.3394 21 19.0056 21.1383 18.7594 21.3844C18.5133 21.6306 18.375 21.9644 18.375 22.3125V24.9375C18.375 25.2856 18.5133 25.6194 18.7594 25.8656C19.0056 26.1117 19.3394 26.25 19.6875 26.25H22.3125C22.509 26.25 22.703 26.2059 22.8802 26.121C23.0574 26.036 23.2132 25.9124 23.3363 25.7591C22.0857 27.4382 21.3039 29.4194 21.0709 31.5H17.0625C16.7144 31.5 16.3806 31.6383 16.1344 31.8844C15.8883 32.1306 15.75 32.4644 15.75 32.8125V42H7.875C7.17881 42 6.51113 41.7234 6.01884 41.2312C5.52656 40.7389 5.25 40.0712 5.25 39.375V2.625ZM10.5 6.5625V9.1875C10.5 9.5356 10.6383 9.86944 10.8844 10.1156C11.1306 10.3617 11.4644 10.5 11.8125 10.5H14.4375C14.7856 10.5 15.1194 10.3617 15.3656 10.1156C15.6117 9.86944 15.75 9.5356 15.75 9.1875V6.5625C15.75 6.2144 15.6117 5.88056 15.3656 5.63442C15.1194 5.38828 14.7856 5.25 14.4375 5.25H11.8125C11.4644 5.25 11.1306 5.38828 10.8844 5.63442C10.6383 5.88056 10.5 6.2144 10.5 6.5625ZM18.375 6.5625V9.1875C18.375 9.5356 18.5133 9.86944 18.7594 10.1156C19.0056 10.3617 19.3394 10.5 19.6875 10.5H22.3125C22.6606 10.5 22.9944 10.3617 23.2406 10.1156C23.4867 9.86944 23.625 9.5356 23.625 9.1875V6.5625C23.625 6.2144 23.4867 5.88056 23.2406 5.63442C22.9944 5.38828 22.6606 5.25 22.3125 5.25H19.6875C19.3394 5.25 19.0056 5.38828 18.7594 5.63442C18.5133 5.88056 18.375 6.2144 18.375 6.5625ZM27.5625 5.25C27.2144 5.25 26.8806 5.38828 26.6344 5.63442C26.3883 5.88056 26.25 6.2144 26.25 6.5625V9.1875C26.25 9.5356 26.3883 9.86944 26.6344 10.1156C26.8806 10.3617 27.2144 10.5 27.5625 10.5H30.1875C30.5356 10.5 30.8694 10.3617 31.1156 10.1156C31.3617 9.86944 31.5 9.5356 31.5 9.1875V6.5625C31.5 6.2144 31.3617 5.88056 31.1156 5.63442C30.8694 5.38828 30.5356 5.25 30.1875 5.25H27.5625ZM10.5 14.4375V17.0625C10.5 17.4106 10.6383 17.7444 10.8844 17.9906C11.1306 18.2367 11.4644 18.375 11.8125 18.375H14.4375C14.7856 18.375 15.1194 18.2367 15.3656 17.9906C15.6117 17.7444 15.75 17.4106 15.75 17.0625V14.4375C15.75 14.0894 15.6117 13.7556 15.3656 13.5094C15.1194 13.2633 14.7856 13.125 14.4375 13.125H11.8125C11.4644 13.125 11.1306 13.2633 10.8844 13.5094C10.6383 13.7556 10.5 14.0894 10.5 14.4375ZM19.6875 13.125C19.3394 13.125 19.0056 13.2633 18.7594 13.5094C18.5133 13.7556 18.375 14.0894 18.375 14.4375V17.0625C18.375 17.4106 18.5133 17.7444 18.7594 17.9906C19.0056 18.2367 19.3394 18.375 19.6875 18.375H22.3125C22.6606 18.375 22.9944 18.2367 23.2406 17.9906C23.4867 17.7444 23.625 17.4106 23.625 17.0625V14.4375C23.625 14.0894 23.4867 13.7556 23.2406 13.5094C22.9944 13.2633 22.6606 13.125 22.3125 13.125H19.6875ZM26.25 14.4375V17.0625C26.25 17.4106 26.3883 17.7444 26.6344 17.9906C26.8806 18.2367 27.2144 18.375 27.5625 18.375H30.1875C30.5356 18.375 30.8694 18.2367 31.1156 17.9906C31.3617 17.7444 31.5 17.4106 31.5 17.0625V14.4375C31.5 14.0894 31.3617 13.7556 31.1156 13.5094C30.8694 13.2633 30.5356 13.125 30.1875 13.125H27.5625C27.2144 13.125 26.8806 13.2633 26.6344 13.5094C26.3883 13.7556 26.25 14.0894 26.25 14.4375ZM11.8125 21C11.4644 21 11.1306 21.1383 10.8844 21.3844C10.6383 21.6306 10.5 21.9644 10.5 22.3125V24.9375C10.5 25.2856 10.6383 25.6194 10.8844 25.8656C11.1306 26.1117 11.4644 26.25 11.8125 26.25H14.4375C14.7856 26.25 15.1194 26.1117 15.3656 25.8656C15.6117 25.6194 15.75 25.2856 15.75 24.9375V22.3125C15.75 21.9644 15.6117 21.6306 15.3656 21.3844C15.1194 21.1383 14.7856 21 14.4375 21H11.8125Z" fill="#F14E13"/>
<path d="M31.2007 24.8325C31.6732 23.2233 33.9517 23.2233 34.4268 24.8325L34.5397 25.221C34.6102 25.4619 34.7338 25.6841 34.9015 25.871C35.0691 26.0579 35.2766 26.2049 35.5085 26.3011C35.7404 26.3973 35.991 26.4402 36.2417 26.4269C36.4924 26.4135 36.737 26.344 36.9573 26.2237L37.3143 26.0295C38.787 25.2262 40.3987 26.838 39.5981 28.3106L39.4012 28.6676C39.2814 28.8878 39.2123 29.1322 39.1992 29.3826C39.1861 29.633 39.2292 29.8832 39.3253 30.1148C39.4215 30.3464 39.5683 30.5535 39.7549 30.721C39.9416 30.8884 40.1633 31.012 40.404 31.0826L40.7951 31.2007C42.4016 31.6732 42.4016 33.9517 40.7951 34.4268L40.4013 34.5397C40.1608 34.6108 39.9392 34.7349 39.7529 34.9028C39.5666 35.0707 39.4202 35.2782 39.3246 35.51C39.2289 35.7419 39.1864 35.9922 39.2001 36.2427C39.2138 36.4931 39.2834 36.7373 39.4038 36.9573L39.5981 37.3143C40.3987 38.787 38.787 40.3987 37.3143 39.5981L36.9573 39.4012C36.7371 39.2814 36.4928 39.2123 36.2423 39.1992C35.9919 39.1861 35.7417 39.2292 35.5102 39.3253C35.2786 39.4215 35.0714 39.5683 34.904 39.7549C34.7365 39.9416 34.6129 40.1633 34.5423 40.404L34.4242 40.7951C33.9517 42.4016 31.6732 42.4016 31.1981 40.7951L31.0852 40.4013C31.0141 40.1608 30.8901 39.9392 30.7221 39.7529C30.5542 39.5666 30.3467 39.4202 30.1149 39.3246C29.883 39.2289 29.6327 39.1864 29.3822 39.2001C29.1318 39.2138 28.8876 39.2834 28.6676 39.4038L28.3106 39.5981C26.838 40.3987 25.2262 38.787 26.0268 37.3143L26.2237 36.9573C26.3436 36.7371 26.4126 36.4928 26.4257 36.2423C26.4388 35.9919 26.3957 35.7417 26.2996 35.5102C26.2034 35.2786 26.0566 35.0714 25.87 34.904C25.6833 34.7365 25.4616 34.6129 25.221 34.5423L24.8325 34.4242C23.2233 33.9517 23.2233 31.6732 24.8325 31.1981L25.221 31.0852C25.4619 31.0147 25.6841 30.8911 25.871 30.7234C26.0579 30.5558 26.2049 30.3484 26.3011 30.1164C26.3973 29.8845 26.4402 29.634 26.4269 29.3832C26.4135 29.1325 26.344 28.8879 26.2237 28.6676L26.0295 28.3106C25.2262 26.838 26.838 25.2262 28.3106 26.0268L28.6676 26.2237C28.8878 26.3436 29.1322 26.4126 29.3826 26.4257C29.633 26.4388 29.8832 26.3957 30.1148 26.2996C30.3464 26.2034 30.5535 26.0566 30.721 25.87C30.8884 25.6833 31.012 25.4616 31.0826 25.221L31.2007 24.8325ZM36.75 32.8125C36.75 32.2954 36.6481 31.7834 36.4502 31.3056C36.2524 30.8279 35.9623 30.3939 35.5967 30.0282C35.2311 29.6626 34.797 29.3726 34.3193 29.1747C33.8416 28.9768 33.3295 28.875 32.8125 28.875C32.2954 28.875 31.7834 28.9768 31.3056 29.1747C30.8279 29.3726 30.3939 29.6626 30.0282 30.0282C29.6626 30.3939 29.3726 30.8279 29.1747 31.3056C28.9768 31.7834 28.875 32.2954 28.875 32.8125C28.875 33.8567 29.2898 34.8583 30.0282 35.5967C30.7666 36.3351 31.7682 36.75 32.8125 36.75C33.8567 36.75 34.8583 36.3351 35.5967 35.5967C36.3351 34.8583 36.75 33.8567 36.75 32.8125Z" fill="#F14E13"/>
</svg>
