<svg width="42" height="42" viewBox="0 0 42 42" fill="none" xmlns="http://www.w3.org/2000/svg">
<path d="M19.1441 3.93751C19.6363 3.4454 20.3039 3.16895 21 3.16895C21.696 3.16895 22.3636 3.4454 22.8558 3.93751L28.8749 9.95663V6.56251C28.8749 6.21441 29.0132 5.88057 29.2594 5.63443C29.5055 5.38829 29.8394 5.25001 30.1874 5.25001H32.8124C33.1605 5.25001 33.4944 5.38829 33.7405 5.63443C33.9867 5.88057 34.1249 6.21441 34.1249 6.56251V15.2066L40.3042 21.3833C40.4262 21.5053 40.523 21.6502 40.5891 21.8096C40.6551 21.969 40.6891 22.1399 40.6891 22.3125C40.6891 22.4851 40.6551 22.656 40.5891 22.8154C40.523 22.9749 40.4262 23.1197 40.3042 23.2418C40.1822 23.3638 40.0373 23.4606 39.8779 23.5266C39.7184 23.5927 39.5475 23.6267 39.3749 23.6267C39.2024 23.6267 39.0315 23.5927 38.872 23.5266C38.7126 23.4606 38.5677 23.3638 38.4457 23.2418L21 5.79338L3.5542 23.2418C3.30775 23.4882 2.97349 23.6267 2.62495 23.6267C2.27641 23.6267 1.94215 23.4882 1.6957 23.2418C1.44925 22.9953 1.31079 22.661 1.31079 22.3125C1.31079 21.964 1.44925 21.6297 1.6957 21.3833L19.1441 3.93751Z" fill="#F14E13"/>
<path d="M29.0588 23.7484C28.3219 23.3655 27.4829 23.2253 26.6617 23.3478C25.8404 23.4704 25.0789 23.8495 24.486 24.4309L24.4335 24.486C23.8517 25.0786 23.4721 25.84 23.349 26.6613C23.226 27.4825 23.3658 28.3217 23.7484 29.0588C22.9509 29.3114 22.2545 29.8113 21.7603 30.4863C21.2661 31.1612 20.9997 31.976 20.9997 32.8125C20.9997 33.6491 21.2661 34.4639 21.7603 35.1388C22.2545 35.8137 22.9509 36.3137 23.7484 36.5663C23.2994 37.4313 23.1872 38.4321 23.4334 39.375H9.1875C8.14321 39.375 7.14169 38.9602 6.40327 38.2218C5.66484 37.4833 5.25 36.4818 5.25 35.4375V24.3942L21 8.64417L33.4005 21.0447C32.4734 20.9046 31.5268 21.0999 30.7308 21.5956C29.9349 22.0912 29.342 22.8546 29.0588 23.7484Z" fill="#F14E13"/>
<path d="M34.5397 25.221L34.4268 24.8325C33.9517 23.2233 31.6732 23.2233 31.1981 24.8325L31.0852 25.221C31.0147 25.4619 30.8911 25.6841 30.7234 25.871C30.5558 26.0579 30.3484 26.2049 30.1164 26.3011C29.8845 26.3973 29.634 26.4402 29.3832 26.4269C29.1325 26.4135 28.8879 26.344 28.6676 26.2237L28.3106 26.0295C26.838 25.2262 25.2262 26.838 26.0268 28.3106L26.2237 28.6676C26.3436 28.8878 26.4126 29.1322 26.4257 29.3826C26.4388 29.633 26.3957 29.8832 26.2996 30.1148C26.2034 30.3464 26.0566 30.5535 25.87 30.721C25.6833 30.8884 25.4616 31.012 25.221 31.0826L24.8325 31.2007C23.2233 31.6732 23.2233 33.9517 24.8325 34.4268L25.221 34.5397C25.4619 34.6102 25.6841 34.7338 25.871 34.9015C26.0579 35.0691 26.2049 35.2766 26.3011 35.5085C26.3973 35.7404 26.4402 35.991 26.4269 36.2417C26.4135 36.4924 26.344 36.737 26.2237 36.9573L26.0295 37.3143C25.2262 38.787 26.838 40.3987 28.3106 39.5981L28.6676 39.4012C28.8878 39.2814 29.1322 39.2123 29.3826 39.1992C29.633 39.1861 29.8832 39.2292 30.1148 39.3253C30.3464 39.4215 30.5535 39.5683 30.721 39.7549C30.8884 39.9416 31.012 40.1633 31.0826 40.404L31.2007 40.7951C31.6732 42.4016 33.9517 42.4016 34.4268 40.7951L34.5397 40.4013C34.6108 40.1608 34.7349 39.9392 34.9028 39.7529C35.0707 39.5666 35.2782 39.4202 35.51 39.3246C35.7419 39.2289 35.9922 39.1864 36.2427 39.2001C36.4931 39.2138 36.7373 39.2834 36.9573 39.4038L37.3143 39.5981C38.787 40.3987 40.3987 38.787 39.5981 37.3143L39.4012 36.9573C39.2814 36.7371 39.2123 36.4928 39.1992 36.2423C39.1861 35.9919 39.2292 35.7417 39.3253 35.5101C39.4215 35.2786 39.5683 35.0714 39.7549 34.904C39.9416 34.7365 40.1633 34.6129 40.404 34.5423L40.7951 34.4268C42.4016 33.9517 42.4016 31.6732 40.7951 31.1981L40.4013 31.0852C40.1608 31.0141 39.9392 30.89 39.7529 30.7221C39.5666 30.5542 39.4202 30.3467 39.3246 30.1149C39.2289 29.883 39.1864 29.6327 39.2001 29.3822C39.2138 29.1318 39.2834 28.8876 39.4038 28.6676L39.5981 28.3106C40.3987 26.838 38.787 25.2262 37.3143 26.0268L36.9573 26.2237C36.7371 26.3436 36.4928 26.4126 36.2423 26.4257C35.9919 26.4388 35.7417 26.3957 35.5101 26.2996C35.2786 26.2034 35.0714 26.0566 34.904 25.87C34.7365 25.6833 34.6129 25.4616 34.5423 25.221H34.5397ZM32.8125 36.75C32.2954 36.75 31.7834 36.6481 31.3056 36.4502C30.8279 36.2524 30.3939 35.9623 30.0282 35.5967C29.6626 35.2311 29.3726 34.797 29.1747 34.3193C28.9768 33.8416 28.875 33.3295 28.875 32.8125C28.875 32.2954 28.9768 31.7834 29.1747 31.3056C29.3726 30.8279 29.6626 30.3939 30.0282 30.0282C30.3939 29.6626 30.8279 29.3726 31.3056 29.1747C31.7834 28.9768 32.2954 28.875 32.8125 28.875C33.8567 28.875 34.8583 29.2898 35.5967 30.0282C36.3351 30.7666 36.75 31.7682 36.75 32.8125C36.75 33.8567 36.3351 34.8583 35.5967 35.5967C34.8583 36.3351 33.8567 36.75 32.8125 36.75Z" fill="#F14E13"/>
</svg>
