<svg width="42" height="42" viewBox="0 0 42 42" fill="none" xmlns="http://www.w3.org/2000/svg">
<path d="M13.125 27.5625C13.125 27.2144 13.2633 26.8806 13.5094 26.6344C13.7556 26.3883 14.0894 26.25 14.4375 26.25H19.6875C20.0356 26.25 20.3694 26.3883 20.6156 26.6344C20.8617 26.8806 21 27.2144 21 27.5625C21 27.9106 20.8617 28.2444 20.6156 28.4906C20.3694 28.7367 20.0356 28.875 19.6875 28.875H14.4375C14.0894 28.875 13.7556 28.7367 13.5094 28.4906C13.2633 28.2444 13.125 27.9106 13.125 27.5625ZM13.125 22.3125C13.125 21.9644 13.2633 21.6306 13.5094 21.3844C13.7556 21.1383 14.0894 21 14.4375 21H27.5625C27.9106 21 28.2444 21.1383 28.4906 21.3844C28.7367 21.6306 28.875 21.9644 28.875 22.3125C28.875 22.6606 28.7367 22.9944 28.4906 23.2406C28.2444 23.4867 27.9106 23.625 27.5625 23.625H14.4375C14.0894 23.625 13.7556 23.4867 13.5094 23.2406C13.2633 22.9944 13.125 22.6606 13.125 22.3125ZM13.125 17.0625C13.125 16.7144 13.2633 16.3806 13.5094 16.1344C13.7556 15.8883 14.0894 15.75 14.4375 15.75H27.5625C27.9106 15.75 28.2444 15.8883 28.4906 16.1344C28.7367 16.3806 28.875 16.7144 28.875 17.0625C28.875 17.4106 28.7367 17.7444 28.4906 17.9906C28.2444 18.2367 27.9106 18.375 27.5625 18.375H14.4375C14.0894 18.375 13.7556 18.2367 13.5094 17.9906C13.2633 17.7444 13.125 17.4106 13.125 17.0625ZM13.125 11.8125C13.125 11.4644 13.2633 11.1306 13.5094 10.8844C13.7556 10.6383 14.0894 10.5 14.4375 10.5H27.5625C27.9106 10.5 28.2444 10.6383 28.4906 10.8844C28.7367 11.1306 28.875 11.4644 28.875 11.8125C28.875 12.1606 28.7367 12.4944 28.4906 12.7406C28.2444 12.9867 27.9106 13.125 27.5625 13.125H14.4375C14.0894 13.125 13.7556 12.9867 13.5094 12.7406C13.2633 12.4944 13.125 12.1606 13.125 11.8125Z" fill="#F14E13"/>
<path d="M7.875 0H34.125C35.5174 0 36.8527 0.553123 37.8373 1.53769C38.8219 2.52226 39.375 3.85761 39.375 5.25V36.75C39.375 38.1424 38.8219 39.4777 37.8373 40.4623C36.8527 41.4469 35.5174 42 34.125 42H7.875C6.48261 42 5.14726 41.4469 4.16269 40.4623C3.17812 39.4777 2.625 38.1424 2.625 36.75V34.125H5.25V36.75C5.25 37.4462 5.52656 38.1139 6.01884 38.6062C6.51113 39.0984 7.17881 39.375 7.875 39.375H34.125C34.8212 39.375 35.4889 39.0984 35.9812 38.6062C36.4734 38.1139 36.75 37.4462 36.75 36.75V5.25C36.75 4.55381 36.4734 3.88613 35.9812 3.39384C35.4889 2.90156 34.8212 2.625 34.125 2.625H7.875C7.17881 2.625 6.51113 2.90156 6.01884 3.39384C5.52656 3.88613 5.25 4.55381 5.25 5.25V7.875H2.625V5.25C2.625 3.85761 3.17812 2.52226 4.16269 1.53769C5.14726 0.553123 6.48261 0 7.875 0Z" fill="#F14E13"/>
<path d="M2.625 13.125V11.8125C2.625 11.4644 2.76328 11.1306 3.00942 10.8844C3.25556 10.6383 3.5894 10.5 3.9375 10.5C4.2856 10.5 4.61944 10.6383 4.86558 10.8844C5.11172 11.1306 5.25 11.4644 5.25 11.8125V13.125H6.5625C6.9106 13.125 7.24444 13.2633 7.49058 13.5094C7.73672 13.7556 7.875 14.0894 7.875 14.4375C7.875 14.7856 7.73672 15.1194 7.49058 15.3656C7.24444 15.6117 6.9106 15.75 6.5625 15.75H1.3125C0.964403 15.75 0.630564 15.6117 0.384422 15.3656C0.138281 15.1194 0 14.7856 0 14.4375C0 14.0894 0.138281 13.7556 0.384422 13.5094C0.630564 13.2633 0.964403 13.125 1.3125 13.125H2.625ZM2.625 21V19.6875C2.625 19.3394 2.76328 19.0056 3.00942 18.7594C3.25556 18.5133 3.5894 18.375 3.9375 18.375C4.2856 18.375 4.61944 18.5133 4.86558 18.7594C5.11172 19.0056 5.25 19.3394 5.25 19.6875V21H6.5625C6.9106 21 7.24444 21.1383 7.49058 21.3844C7.73672 21.6306 7.875 21.9644 7.875 22.3125C7.875 22.6606 7.73672 22.9944 7.49058 23.2406C7.24444 23.4867 6.9106 23.625 6.5625 23.625H1.3125C0.964403 23.625 0.630564 23.4867 0.384422 23.2406C0.138281 22.9944 0 22.6606 0 22.3125C0 21.9644 0.138281 21.6306 0.384422 21.3844C0.630564 21.1383 0.964403 21 1.3125 21H2.625ZM2.625 28.875V27.5625C2.625 27.2144 2.76328 26.8806 3.00942 26.6344C3.25556 26.3883 3.5894 26.25 3.9375 26.25C4.2856 26.25 4.61944 26.3883 4.86558 26.6344C5.11172 26.8806 5.25 27.2144 5.25 27.5625V28.875H6.5625C6.9106 28.875 7.24444 29.0133 7.49058 29.2594C7.73672 29.5056 7.875 29.8394 7.875 30.1875C7.875 30.5356 7.73672 30.8694 7.49058 31.1156C7.24444 31.3617 6.9106 31.5 6.5625 31.5H1.3125C0.964403 31.5 0.630564 31.3617 0.384422 31.1156C0.138281 30.8694 0 30.5356 0 30.1875C0 29.8394 0.138281 29.5056 0.384422 29.2594C0.630564 29.0133 0.964403 28.875 1.3125 28.875H2.625Z" fill="#F14E13"/>
</svg>
