<svg width="42" height="42" viewBox="0 0 42 42" fill="none" xmlns="http://www.w3.org/2000/svg">
<path d="M35.4375 7.875C35.7856 7.875 36.1194 8.01328 36.3656 8.25942C36.6117 8.50556 36.75 8.8394 36.75 9.1875V28.875H5.25V9.1875C5.25 8.8394 5.38828 8.50556 5.63442 8.25942C5.88056 8.01328 6.2144 7.875 6.5625 7.875H35.4375ZM6.5625 5.25C5.51821 5.25 4.51669 5.66484 3.77827 6.40327C3.03984 7.14169 2.625 8.14321 2.625 9.1875V31.5H39.375V9.1875C39.375 8.14321 38.9602 7.14169 38.2217 6.40327C37.4833 5.66484 36.4818 5.25 35.4375 5.25H6.5625ZM0 32.8125H42C42 33.8568 41.5852 34.8583 40.8467 35.5967C40.1083 36.3352 39.1068 36.75 38.0625 36.75H3.9375C2.89321 36.75 1.89169 36.3352 1.15327 35.5967C0.414843 34.8583 0 33.8568 0 32.8125Z" fill="#F14E13"/>
</svg>
