<svg width="42" height="42" viewBox="0 0 42 42" fill="none" xmlns="http://www.w3.org/2000/svg">
<g clip-path="url(#clip0_92_2)">
<path d="M2.625 2.44817e-05L0 2.62502L5.775 10.7126C6.01812 11.0532 6.33914 11.3307 6.71128 11.5221C7.08343 11.7134 7.49593 11.813 7.91438 11.8125H8.09813C8.44326 11.8123 8.78506 11.88 9.10396 12.012C9.42287 12.144 9.71262 12.3376 9.95662 12.5817L16.9785 19.6035L10.1089 26.5703C8.93391 26.2244 7.69451 26.1571 6.48899 26.3737C5.28348 26.5902 4.14501 27.0848 3.16391 27.818C2.18281 28.5512 1.38605 29.5029 0.836859 30.5977C0.287664 31.6925 0.00113453 32.9002 0 34.125C0.00157359 35.2536 0.24571 36.3687 0.715868 37.3947C1.18603 38.4207 1.87122 39.3336 2.72503 40.0717C3.57884 40.8097 4.58131 41.3557 5.66453 41.6724C6.74775 41.9892 7.8864 42.0695 9.00335 41.9078C10.1203 41.7461 11.1894 41.3462 12.1383 40.7352C13.0872 40.1242 13.8937 39.3164 14.5031 38.3665C15.1126 37.4166 15.5107 36.3468 15.6706 35.2296C15.8305 34.1124 15.7483 32.9738 15.4297 31.8911L22.3965 25.0215L24.9375 27.5625L24.1369 29.9618C23.983 30.4242 23.961 30.9204 24.0732 31.3947C24.1854 31.869 24.4274 32.3026 24.7721 32.6471L33.3559 41.2309C33.5991 41.4755 33.8883 41.6696 34.2068 41.8021C34.5253 41.9345 34.8668 42.0027 35.2118 42.0027C35.5567 42.0027 35.8982 41.9345 36.2167 41.8021C36.5352 41.6696 36.8244 41.4755 37.0676 41.2309L41.2309 37.0676C41.4755 36.8244 41.6696 36.5353 41.8021 36.2168C41.9345 35.8983 42.0027 35.5567 42.0027 35.2118C42.0027 34.8668 41.9345 34.5253 41.8021 34.2068C41.6696 33.8883 41.4755 33.5991 41.2309 33.3559L32.6471 24.7722C32.3026 24.4274 31.8689 24.1854 31.3946 24.0732C30.9204 23.961 30.4242 23.9831 29.9617 24.1369L27.5625 24.9375L25.0425 22.4175L32.0775 15.4796C33.2445 15.7912 34.4675 15.8305 35.6522 15.5947C36.8368 15.3588 37.9515 14.854 38.9102 14.1192C39.869 13.3845 40.6461 12.4393 41.1818 11.3567C41.7175 10.2741 41.9975 9.08293 42 7.87502C42 7.16627 41.9107 6.4864 41.7323 5.8354L36.1147 11.4555L31.5 10.5L30.5445 5.8879L36.1646 0.267774C34.8277 -0.0916897 33.4196 -0.0923607 32.0824 0.265829C30.7451 0.624019 29.5259 1.32841 28.5476 2.308C27.5694 3.28759 26.8666 4.50776 26.5103 5.84552C26.1539 7.18327 26.1565 8.59134 26.5177 9.92777L19.5877 16.9575L12.5816 9.95665C12.0893 9.46448 11.8126 8.79691 11.8125 8.10077V7.9144C11.8125 7.49639 11.7128 7.08442 11.5214 6.71277C11.3301 6.34111 11.0528 6.02051 10.7126 5.77765L2.625 2.44817e-05ZM27.9457 27.9458C28.0677 27.8235 28.2125 27.7266 28.372 27.6604C28.5314 27.5942 28.7024 27.5602 28.875 27.5602C29.0476 27.5602 29.2186 27.5942 29.378 27.6604C29.5375 27.7266 29.6823 27.8235 29.8043 27.9458L37.4535 35.5976C37.6926 35.8452 37.8249 36.1767 37.8219 36.5209C37.8189 36.865 37.6809 37.1942 37.4375 37.4375C37.1942 37.6809 36.865 37.8189 36.5208 37.8219C36.1767 37.8249 35.8452 37.6926 35.5976 37.4535L27.9457 29.8043C27.8235 29.6824 27.7265 29.5375 27.6604 29.3781C27.5942 29.2186 27.5602 29.0477 27.5602 28.875C27.5602 28.7024 27.5942 28.5314 27.6604 28.372C27.7265 28.2125 27.8235 28.0677 27.9457 27.9458ZM7.875 28.875L9.11137 29.5103L10.5 29.5785L11.2534 30.7466L12.4215 31.5L12.4897 32.8886L13.125 34.125L12.4897 35.3614L12.4215 36.75L11.2534 37.5034L10.5 38.6715L9.11137 38.7398L7.875 39.375L6.63863 38.7398L5.25 38.6715L4.49662 37.5034L3.3285 36.75L3.26025 35.3614L2.625 34.125L3.26025 32.8886L3.3285 31.5L4.49662 30.7466L5.25 29.5785L6.63863 29.5103L7.875 28.875Z" fill="#F14E13"/>
</g>
<defs>
<clipPath id="clip0_92_2">
<rect width="42" height="42" fill="white"/>
</clipPath>
</defs>
</svg>
