<svg width="31" height="30" viewBox="0 0 31 30" fill="none" xmlns="http://www.w3.org/2000/svg">
<g clip-path="url(#clip0_93_51)">
<path d="M26.0019 4.36135C24.6268 2.97291 22.9889 1.87219 21.1839 1.1234C19.3789 0.37462 17.4429 -0.00723904 15.4887 0.000103922C7.30062 0.000103922 0.6275 6.67135 0.62 14.8614C0.62 17.4845 1.30625 20.0364 2.60188 22.2957L0.5 30.0001L8.3825 27.9339C10.5622 29.123 13.0058 29.7452 15.4887 29.7432H15.4963C23.6863 29.7432 30.3575 23.072 30.365 14.8745C30.3667 12.9208 29.9819 10.9862 29.2327 9.18187C28.4836 7.37757 27.3868 5.73929 26.0019 4.36135ZM15.4887 27.227C13.2747 27.2252 11.1017 26.6295 9.19625 25.502L8.74625 25.232L4.07 26.4582L5.31875 21.8964L5.02625 21.4257C3.78839 19.4576 3.13371 17.1789 3.13812 14.8539C3.13812 8.0551 8.6825 2.50885 15.4963 2.50885C17.1195 2.50594 18.7273 2.82437 20.2269 3.44578C21.7265 4.06718 23.0883 4.97928 24.2337 6.12948C25.3829 7.27538 26.294 8.63737 26.9144 10.137C27.5349 11.6366 27.8524 13.2441 27.8488 14.867C27.8413 21.6901 22.2969 27.227 15.4887 27.227ZM22.2669 17.9757C21.8975 17.7901 20.0731 16.892 19.73 16.7645C19.3888 16.6426 19.1394 16.5789 18.8956 16.9501C18.6462 17.3195 17.9338 18.1614 17.72 18.4032C17.5063 18.6526 17.285 18.6807 16.9137 18.497C16.5444 18.3095 15.3463 17.9195 13.9288 16.6501C12.8225 15.6657 12.0819 14.447 11.8606 14.0776C11.6469 13.7064 11.84 13.5076 12.0256 13.322C12.1887 13.157 12.395 12.887 12.5806 12.6732C12.7681 12.4595 12.83 12.302 12.9519 12.0545C13.0737 11.8032 13.0156 11.5895 12.9237 11.4039C12.83 11.2182 12.0894 9.38635 11.7762 8.6476C11.4762 7.91823 11.1706 8.01948 10.9419 8.0101C10.7281 7.99698 10.4788 7.99698 10.2294 7.99698C10.0411 8.00177 9.85579 8.04538 9.68512 8.12507C9.51445 8.20476 9.36207 8.31882 9.2375 8.4601C8.89625 8.83135 7.94187 9.72948 7.94187 11.5614C7.94187 13.3932 9.27312 15.1539 9.46062 15.4032C9.64437 15.6526 12.0744 19.4007 15.8037 21.0132C16.685 21.3976 17.3787 21.6245 17.9206 21.797C18.8113 22.082 19.6156 22.0389 20.2569 21.947C20.9694 21.8382 22.4525 21.047 22.7656 20.1789C23.0731 19.3089 23.0731 18.5664 22.9794 18.4107C22.8875 18.2532 22.6381 18.1614 22.2669 17.9757Z" fill="white"/>
</g>
<defs>
<clipPath id="clip0_93_51">
<rect width="30" height="30" fill="white" transform="translate(0.5)"/>
</clipPath>
</defs>
</svg>
